<svg width="271" height="226" viewBox="0 0 271 226" fill="none" xmlns="http://www.w3.org/2000/svg">
<rect width="271" height="226" fill="#1E1E1E"/>
<rect width="1440" height="960" transform="translate(-475 -383)" fill="white"/>
<rect x="6.7489" y="7.66092" width="262.659" height="186.78" fill="white"/>
<rect x="269.458" y="3.28327" width="1.33478" height="25.9011" rx="0.667391" transform="rotate(40 269.458 3.28327)" fill="#FF1818"/>
<rect x="30.9513" y="169.08" width="1.33478" height="25.9011" rx="0.667391" transform="rotate(-141 30.9513 169.08)" fill="#FF1818"/>
<rect x="251.765" y="7.66092" width="1.33478" height="25.9011" rx="0.667391" transform="rotate(40 251.765 7.66092)" fill="#FFCA10"/>
<rect x="13.2582" y="173.457" width="1.33478" height="25.9011" rx="0.667391" transform="rotate(-141 13.2582 173.457)" fill="#FFCA10"/>
<rect x="255.258" y="27.448" width="0.347103" height="8.35993" rx="0.173552" transform="rotate(40 255.258 27.448)" fill="#FF1818"/>
<rect x="27.1459" y="179.081" width="0.347103" height="8.35994" rx="0.173552" transform="rotate(-141 27.1459 179.081)" fill="#FF1818"/>
<rect x="269.458" y="24.8067" width="1.33478" height="25.9011" rx="0.667391" transform="rotate(40 269.458 24.8067)" fill="#FFCA10"/>
<rect x="30.9513" y="190.603" width="1.33478" height="25.9011" rx="0.667391" transform="rotate(-141 30.9513 190.603)" fill="#FFCA10"/>
<rect x="33.2879" y="176.639" width="0.775225" height="17.2472" rx="0.387612" transform="rotate(-141 33.2879 176.639)" fill="#0DB609"/>
<rect x="239.544" y="3.05176e-05" width="1.33478" height="25.9011" rx="0.667391" transform="rotate(40 239.544 3.05176e-05)" fill="#FFCA10"/>
<rect x="1.03732" y="165.796" width="1.33478" height="25.9011" rx="0.667391" transform="rotate(-141 1.03732 165.796)" fill="#FFCA10"/>
<rect x="269.458" y="46.3302" width="1.33478" height="25.9011" rx="0.667391" transform="rotate(40 269.458 46.3302)" fill="#FF1818"/>
<rect x="30.9513" y="212.127" width="1.33478" height="25.9011" rx="0.667391" transform="rotate(-141 30.9513 212.127)" fill="#FF1818"/>
<rect x="266.722" y="17.8754" width="0.775224" height="17.2472" rx="0.387612" transform="rotate(40 266.722 17.8754)" fill="#0DB609"/>
<rect x="249.029" y="22.2531" width="0.775224" height="17.2472" rx="0.387612" transform="rotate(40 249.029 22.2531)" fill="#0DB609"/>
<rect x="15.5948" y="181.016" width="0.775225" height="17.2472" rx="0.387612" transform="rotate(-141 15.5948 181.016)" fill="#0DB609"/>
<rect x="251.765" y="41.4053" width="0.775224" height="17.2472" rx="0.387612" transform="rotate(40 251.765 41.4053)" fill="#FFCA10"/>
<rect x="18.3309" y="200.168" width="0.775225" height="17.2472" rx="0.387612" transform="rotate(-141 18.3309 200.168)" fill="#FFCA10"/>
<rect x="266.722" y="39.3989" width="0.775224" height="17.2472" rx="0.387612" transform="rotate(40 266.722 39.3989)" fill="#0DB609"/>
<rect x="33.2879" y="198.162" width="0.775225" height="17.2472" rx="0.387612" transform="rotate(-141 33.2879 198.162)" fill="#0DB609"/>
<rect x="236.808" y="14.5922" width="0.775224" height="17.2472" rx="0.387612" transform="rotate(40 236.808 14.5922)" fill="#0DB609"/>
<rect x="3.3739" y="173.355" width="0.775225" height="17.2472" rx="0.387612" transform="rotate(-141 3.3739 173.355)" fill="#0DB609"/>
<rect x="266.722" y="66.3944" width="0.775224" height="17.2472" rx="0.387612" transform="rotate(40 266.722 66.3944)" fill="#0DB609"/>
<rect x="33.2879" y="225.158" width="0.775225" height="17.2472" rx="0.387612" transform="rotate(-141 33.2879 225.158)" fill="#0DB609"/>
<rect x="6.7489" y="195.322" width="14.5922" height="0.898741" transform="rotate(-49.5 6.7489 195.322)" fill="#FFCA10"/>
</svg>
