<svg width="1440" height="1024" viewBox="0 0 1440 1024" fill="none" xmlns="http://www.w3.org/2000/svg">
<rect width="1440" height="1024" fill="white"/>
<rect x="1440.28" y="-24" width="7.3178" height="142" rx="3.6589" transform="rotate(40 1440.28 -24)" fill="#FF1818"/>
<rect x="132.687" y="884.96" width="7.3178" height="142" rx="3.6589" transform="rotate(-141 132.687 884.96)" fill="#FF1818"/>
<rect x="1343.28" width="7.3178" height="142" rx="3.6589" transform="rotate(40 1343.28 0)" fill="#FFCA10"/>
<rect x="35.6869" y="908.96" width="7.3178" height="142" rx="3.6589" transform="rotate(-141 35.6869 908.96)" fill="#FFCA10"/>
<rect x="1362.42" y="108.481" width="1.90296" height="45.8324" rx="0.951477" transform="rotate(40 1362.42 108.481)" fill="#FF1818"/>
<rect x="111.825" y="939.795" width="1.90296" height="45.8324" rx="0.951477" transform="rotate(-141 111.825 939.795)" fill="#FF1818"/>
<rect x="1440.28" y="94" width="7.3178" height="142" rx="3.6589" transform="rotate(40 1440.28 94)" fill="#FFCA10"/>
<rect x="132.687" y="1002.96" width="7.3178" height="142" rx="3.6589" transform="rotate(-141 132.687 1002.96)" fill="#FFCA10"/>
<rect x="145.497" y="926.401" width="4.25008" height="94.5557" rx="2.12504" transform="rotate(-141 145.497 926.401)" fill="#0DB609"/>
<rect x="1276.28" y="-42" width="7.3178" height="142" rx="3.6589" transform="rotate(40 1276.28 -42)" fill="#FFCA10"/>
<rect x="-31.313" y="866.96" width="7.3178" height="142" rx="3.6589" transform="rotate(-141 -31.313 866.96)" fill="#FFCA10"/>
<rect x="1440.28" y="212" width="7.3178" height="142" rx="3.6589" transform="rotate(40 1440.28 212)" fill="#FF1818"/>
<rect x="132.687" y="1120.96" width="7.3178" height="142" rx="3.6589" transform="rotate(-141 132.687 1120.96)" fill="#FF1818"/>
<rect x="1425.28" y="56" width="4.25008" height="94.5557" rx="2.12504" transform="rotate(40 1425.28 56)" fill="#0DB609"/>
<rect x="1328.28" y="80" width="4.25008" height="94.5557" rx="2.12504" transform="rotate(40 1328.28 80)" fill="#0DB609"/>
<rect x="48.497" y="950.401" width="4.25008" height="94.5557" rx="2.12504" transform="rotate(-141 48.497 950.401)" fill="#0DB609"/>
<rect x="1343.28" y="185" width="4.25008" height="94.5557" rx="2.12504" transform="rotate(40 1343.28 185)" fill="#FFCA10"/>
<rect x="63.497" y="1055.4" width="4.25008" height="94.5557" rx="2.12504" transform="rotate(-141 63.497 1055.4)" fill="#FFCA10"/>
<rect x="1425.28" y="174" width="4.25008" height="94.5557" rx="2.12504" transform="rotate(40 1425.28 174)" fill="#0DB609"/>
<rect x="145.497" y="1044.4" width="4.25008" height="94.5557" rx="2.12504" transform="rotate(-141 145.497 1044.4)" fill="#0DB609"/>
<rect x="1261.28" y="38" width="4.25008" height="94.5557" rx="2.12504" transform="rotate(40 1261.28 38)" fill="#0DB609"/>
<rect x="-18.5029" y="908.401" width="4.25008" height="94.5557" rx="2.12504" transform="rotate(-141 -18.5029 908.401)" fill="#0DB609"/>
<rect x="1425.28" y="322" width="4.25008" height="94.5557" rx="2.12504" transform="rotate(40 1425.28 322)" fill="#0DB609"/>
<rect y="1028.83" width="80" height="4.92725" transform="rotate(-49.5 0 1028.83)" fill="#FFCA10"/>
</svg>
